<?xml version="1.0" standalone="no"?>
<!DOCTYPE svg PUBLIC "-//W3C//DTD SVG 20010904//EN"
 "http://www.w3.org/TR/2001/REC-SVG-20010904/DTD/svg10.dtd">
<svg version="1.0" xmlns="http://www.w3.org/2000/svg"
 width="260.000000pt" height="260.000000pt" viewBox="0 0 260.000000 260.000000"
 preserveAspectRatio="xMidYMid meet">
<metadata>
Created by potrace 1.11, written by Peter Selinger 2001-2013
</metadata>
<g transform="translate(0.000000,260.000000) scale(0.100000,-0.100000)"
fill="#000000" stroke="none">
<path d="M1169 2360 c-118 -15 -258 -58 -360 -112 -279 -145 -471 -390 -546
-694 -38 -156 -38 -342 0 -498 28 -114 80 -234 139 -327 151 -234 414 -412
686 -465 95 -18 319 -18 414 0 414 80 748 415 834 836 26 128 16 375 -20 495
-132 445 -518 749 -976 769 -58 3 -135 1 -171 -4z m-467 -647 c28 -25 23 -78
-27 -320 -51 -242 -53 -276 -16 -281 65 -10 82 13 110 145 15 73 18 78 44 81
33 4 34 -5 11 -107 -9 -39 -13 -82 -10 -97 6 -23 11 -25 49 -22 l42 3 7 57
c17 135 110 218 195 174 62 -31 62 -49 4 -334 -71 -346 -67 -332 -96 -332 -15
0 -25 6 -25 15 0 8 16 89 35 181 19 91 35 169 35 172 0 4 -25 8 -55 9 -30 1
-63 2 -72 3 -10 1 -39 -2 -65 -6 -33 -5 -55 -2 -78 10 -29 14 -35 14 -63 0
-42 -22 -115 -14 -139 16 -25 30 -23 54 16 242 19 89 42 197 51 239 15 74 13
109 -6 109 -10 0 -12 43 -2 53 11 12 36 8 55 -10z m1333 -45 c-22 -91 -105
-507 -105 -524 0 -30 24 -48 56 -40 23 6 25 4 22 -21 -3 -25 -7 -28 -44 -31
-28 -2 -48 3 -64 16 -22 18 -23 18 -62 -1 -33 -17 -45 -18 -75 -9 -24 7 -42 8
-54 2 -27 -15 -92 -12 -117 5 -19 14 -24 14 -51 0 -38 -19 -100 -19 -128 0
-19 13 -25 13 -57 0 -77 -32 -150 -6 -161 58 -3 18 1 59 9 92 9 39 11 64 5 71
-11 13 -2 64 12 64 4 0 20 -11 35 -23 27 -24 27 -24 15 -83 -7 -32 -11 -75 -9
-94 3 -32 6 -35 39 -38 50 -4 72 26 88 120 17 92 25 108 58 108 24 0 25 -2 19
-32 -20 -100 -29 -166 -23 -181 8 -22 70 -23 91 -2 17 17 29 54 49 150 11 55
15 60 41 63 32 4 32 20 5 -137 -13 -69 -12 -74 6 -87 11 -8 29 -13 40 -12 17
3 21 13 26 69 10 124 72 195 161 186 38 -3 49 -1 52 12 3 9 19 81 36 160 17
80 33 148 36 153 3 4 16 8 30 8 20 0 23 -4 19 -22z m-1177 -220 c15 -15 -3
-48 -28 -48 -25 0 -31 21 -12 43 18 20 24 21 40 5z m807 -19 c0 -19 -5 -24
-24 -24 -30 0 -37 17 -15 39 22 22 39 15 39 -15z"/>
<path d="M1022 1293 c-23 -9 -52 -81 -52 -128 0 -39 4 -47 25 -57 32 -15 72 2
85 36 18 47 23 125 10 141 -12 15 -43 18 -68 8z"/>
<path d="M1795 1286 c-22 -23 -45 -81 -45 -119 0 -57 58 -77 99 -34 29 32 50
139 31 161 -18 23 -57 19 -85 -8z"/>
</g>
</svg>
